<svg id="close" width="24" height="24" viewBox="0 0 20 19" xmlns="http://www.w3.org/2000/svg">
<path fill-rule="evenodd" clip-rule="evenodd" d="M10.9943 7.16602L4.49056 0.662308C3.62943 -0.198816 2.22827 -0.19885 1.36605 0.663368C0.504928 1.52449 0.504928 2.92569 1.36605 3.78681L7.86976 10.2905L8.86413 9.29616L7.86976 8.30179L2.36042 2.79244C2.04759 2.47962 2.04759 1.97056 2.36148 1.65668C2.67431 1.34385 3.18336 1.34385 3.49619 1.65668L9.00553 7.16602L9.9999 8.16039L10.9943 7.16602ZM12.13 8.30179L11.1357 9.29616L12.13 10.2905L17.3433 15.5038C17.6561 15.8166 17.6561 16.3257 17.3433 16.6385C17.0294 16.9524 16.5204 16.9524 16.2075 16.6396L10.9943 11.4263L9.9999 10.4319L9.00553 11.4263L15.2132 17.6339C16.0743 18.4951 17.4755 18.4951 18.3366 17.6339C19.1988 16.7717 19.1988 15.3705 18.3377 14.5094L12.13 8.30179Z"/>
<path fill-rule="evenodd" clip-rule="evenodd" d="M15.5093 0.662225L9.00553 7.16602L9.9999 8.16039L10.9943 7.16602L16.5037 1.65659C16.8165 1.34377 17.3256 1.34377 17.6384 1.65659C17.9523 1.97052 17.9523 2.47953 17.6395 2.79236L12.13 8.30179L11.1357 9.29616L12.13 10.2905L18.6338 3.78673C19.495 2.92561 19.495 1.52441 18.6338 0.663285C17.7716 -0.198899 16.3704 -0.198898 15.5093 0.662225ZM10.9943 11.4263L9.9999 10.4319L9.00553 11.4263L3.79234 16.6395C3.47951 16.9523 2.97046 16.9523 2.65658 16.6384C2.34375 16.3256 2.34375 15.8165 2.65658 15.5037L7.86976 10.2905L8.86413 9.29616L7.86976 8.30179L1.66221 14.5093C0.801082 15.3705 0.801082 16.7717 1.66327 17.6338C2.52439 18.495 3.92559 18.495 4.78671 17.6338L10.9943 11.4263Z"/>
</svg>
