<svg id="open" width="24" height="24" viewBox="0 0 24 24" xmlns="http://www.w3.org/2000/svg">
<g clip-path="url(#clip0_57_246)">
<path d="M2.20861 7.43124H21.7914C23.0092 7.43124 24 6.44044 24 5.22263C24 4.00327 23.0092 3.01252 21.7914 3.01252H2.20861C0.990797 3.01252 0 4.00327 0 5.22263C0 6.44044 0.990797 7.43124 2.20861 7.43124ZM2.20861 4.41877H21.7914C22.2338 4.41877 22.5938 4.77872 22.5938 5.22113C22.5938 5.66508 22.2338 6.02499 21.7914 6.02499H2.20861C1.7662 6.02499 1.40625 5.66503 1.40625 5.22113C1.40625 4.77867 1.7662 4.41877 2.20861 4.41877Z"/>
<path d="M21.7914 9.79064H2.20861C0.990797 9.79064 0 10.7814 0 12.0008C0 13.2186 0.990797 14.2094 2.20861 14.2094H21.7914C23.0092 14.2094 24 13.2186 24 12.0008C24 10.7814 23.0092 9.79064 21.7914 9.79064ZM21.7914 12.8031H2.20861C1.7662 12.8031 1.40625 12.4432 1.40625 11.9993C1.40625 11.5568 1.7662 11.1969 2.20861 11.1969H21.7914C22.2338 11.1969 22.5938 11.5568 22.5938 11.9993C22.5938 12.4432 22.2338 12.8031 21.7914 12.8031Z"/>
<path d="M21.7914 16.5688H2.20861C0.990797 16.5688 0 17.5596 0 18.7789C0 19.9967 0.990797 20.9875 2.20861 20.9875H21.7914C23.0092 20.9875 24 19.9967 24 18.7789C24 17.5596 23.0092 16.5688 21.7914 16.5688ZM21.7914 19.5812H2.20861C1.7662 19.5812 1.40625 19.2213 1.40625 18.7774C1.40625 18.335 1.7662 17.975 2.20861 17.975H21.7914C22.2338 17.975 22.5938 18.335 22.5938 18.7774C22.5938 19.2213 22.2338 19.5812 21.7914 19.5812Z"/>
</g>
<defs>
<clipPath id="clip0_57_246">
<rect width="24" height="24" fill="white"/>
</clipPath>
</defs>
</svg>
