<?xml version="1.0" encoding="utf-8"?><svg viewBox="0 0 24 24" xmlns="http://www.w3.org/2000/svg" xmlns:xlink="http://www.w3.org/1999/xlink"><style>:root>svg{display:none}:root>svg:target{display:block}</style><svg viewBox="0 0 18 14" id="checkmark" xmlns="http://www.w3.org/2000/svg"><path d="M6.135 13.338L0 7.203l.81-.81 5.325 5.324L17.19.663l.81.81L6.135 13.338z" fill="#EA5546"/></svg><svg viewBox="0 0 13 13" id="information" xmlns="http://www.w3.org/2000/svg"><path d="M6.5 0A6.507 6.507 0 000 6.5C0 10.084 2.916 13 6.5 13S13 10.084 13 6.5 10.084 0 6.5 0zm0 11.818A5.324 5.324 0 011.182 6.5 5.324 5.324 0 016.5 1.182 5.324 5.324 0 0111.818 6.5 5.324 5.324 0 016.5 11.818z" fill="#EA5546"/><path d="M6.5 2.758a.789.789 0 000 1.576.789.789 0 000-1.576zM6.5 5.515a.59.59 0 00-.59.591v3.546a.59.59 0 001.18 0V6.106a.59.59 0 00-.59-.59z" fill="#EA5546"/></svg><svg viewBox="0 0 18 18" id="instagram" xmlns="http://www.w3.org/2000/svg"><path d="M13.127 0H4.872A4.878 4.878 0 000 4.872v8.256A4.878 4.878 0 004.872 18h8.256A4.878 4.878 0 0018 13.128V4.872A4.878 4.878 0 0013.127 0zm3.818 13.128a3.821 3.821 0 01-3.818 3.817H4.872a3.821 3.821 0 01-3.817-3.817V4.872a3.821 3.821 0 013.817-3.817h8.256a3.821 3.821 0 013.817 3.817v8.256z"/><path d="M9 4.078A4.927 4.927 0 004.078 9 4.927 4.927 0 009 13.922 4.927 4.927 0 0013.922 9 4.927 4.927 0 009 4.078zm0 8.789A3.87 3.87 0 015.133 9 3.871 3.871 0 019 5.133 3.87 3.87 0 0112.867 9 3.87 3.87 0 019 12.867zM14.04 2.33a1.456 1.456 0 000 2.909c.801 0 1.454-.652 1.454-1.454 0-.802-.653-1.455-1.455-1.455zm0 1.854a.4.4 0 110-.8.4.4 0 010 .8z"/></svg><svg viewBox="0 0 18 18" id="maps-and-flags" xmlns="http://www.w3.org/2000/svg"><path d="M9 0a6.526 6.526 0 00-6.519 6.519c0 4.46 5.834 11.01 6.082 11.286.234.26.64.26.874 0 .248-.276 6.082-6.825 6.082-11.286A6.526 6.526 0 009 0zm0 16.514C7.037 14.182 3.655 9.58 3.655 6.519A5.351 5.351 0 019 1.174a5.351 5.351 0 015.345 5.345c0 3.062-3.381 7.662-5.345 9.995z"/><path d="M9 3.24a3.284 3.284 0 00-3.28 3.279A3.284 3.284 0 009 9.799a3.284 3.284 0 003.28-3.28A3.284 3.284 0 009 3.239zm0 5.385a2.108 2.108 0 01-2.106-2.106c0-1.161.945-2.106 2.106-2.106s2.106.945 2.106 2.106A2.108 2.108 0 019 8.625z"/></svg><svg viewBox="0 0 13 13" id="person" xmlns="http://www.w3.org/2000/svg"><path d="M6.713 0a3.432 3.432 0 00-3.428 3.428 3.432 3.432 0 003.428 3.427 3.432 3.432 0 003.428-3.427A3.432 3.432 0 006.713 0zm0 6.094a2.669 2.669 0 01-2.666-2.666A2.669 2.669 0 016.713.762a2.669 2.669 0 012.666 2.666 2.669 2.669 0 01-2.666 2.666zM10.978 9.095a4.887 4.887 0 00-3.503-1.478H5.95c-1.32 0-2.564.525-3.503 1.478A4.995 4.995 0 001 12.619c0 .21.17.381.38.381h10.665c.21 0 .38-.17.38-.38a4.996 4.996 0 00-1.447-3.525zm-9.2 3.143c.191-2.16 1.99-3.86 4.173-3.86h1.524c2.183 0 3.982 1.7 4.172 3.86H1.778z" fill="#EA5546"/></svg><svg viewBox="0 0 24 24" id="phone" xmlns="http://www.w3.org/2000/svg"><path d="M23.382 17.701L20.4 14.718a2.112 2.112 0 00-2.984 0l-1.356 1.356a1.6 1.6 0 01-2.26 0L7.92 10.191a1.597 1.597 0 010-2.26l1.356-1.356a2.108 2.108 0 000-2.984L6.292.617A2.111 2.111 0 003.312.615L2.225 1.693c-2.966 2.966-2.966 7.792 0 10.758l9.313 9.319a7.603 7.603 0 0010.76 0l1.084-1.085a2.112 2.112 0 000-2.983zM4.304 1.611a.704.704 0 01.996.001l2.982 2.974a.703.703 0 010 .994l-.497.498L3.81 2.102l.494-.49zm8.23 19.165l-9.315-9.319a6.183 6.183 0 01-.388-8.344l3.964 3.964a3.002 3.002 0 00.131 4.109l5.878 5.882a3.002 3.002 0 004.109.131l3.964 3.964a6.17 6.17 0 01-8.344-.387zm9.854-1.085l-.498.497-3.978-3.978.498-.498a.704.704 0 01.994 0l2.984 2.984a.704.704 0 010 .994z"/></svg><svg viewBox="0 0 18 18" id="plus" xmlns="http://www.w3.org/2000/svg"><path d="M0 8.5h18v1H0v-1z"/><path d="M9.5 0v18h-1V0h1z"/></svg><svg viewBox="0 0 18 18" id="telegram" xmlns="http://www.w3.org/2000/svg"><g clip-path="url(#hclip0_3_2)"><path d="M17.721 1.788c-.22-.269-.549-.417-.927-.417a1.82 1.82 0 00-.647.129L.91 7.316c-.809.309-.918.772-.91 1.02.006.249.141.705.966.968a.64.64 0 00.015.004l3.16.905 1.71 4.887c.233.666.756 1.08 1.365 1.08.384 0 .762-.16 1.093-.465l1.955-1.8 2.835 2.283h.001l.027.023.007.005c.316.245.66.374.996.374.656 0 1.18-.486 1.331-1.238l2.497-12.327c.1-.495.016-.938-.237-1.247zM5.2 10.041l6.097-3.115L7.5 10.96a.526.526 0 00-.128.235L6.64 14.16l-1.441-4.12zm2.395 4.898c-.025.023-.05.044-.076.063l.68-2.75 1.235.994-1.839 1.693zm9.33-12.114l-2.496 12.328c-.024.118-.101.392-.298.392-.098 0-.22-.053-.346-.15l-3.213-2.586-.001-.002-1.912-1.539 5.49-5.834a.527.527 0 00-.623-.831l-9.03 4.613L1.29 8.3l15.232-5.815a.774.774 0 01.27-.06c.033 0 .09.005.112.03.028.035.063.152.02.37z"/></g><defs><clipPath id="hclip0_3_2"><path d="M0 0h18v18H0z"/></clipPath></defs></svg><svg viewBox="0 0 16 22" id="up-arrow" xmlns="http://www.w3.org/2000/svg"><path d="M7.676.134L.8 7.01a.458.458 0 10.648.648l6.093-6.092v19.977a.458.458 0 10.916 0V1.565l6.093 6.092a.458.458 0 10.648-.648L8.324.134a.458.458 0 00-.648 0z"/></svg><svg viewBox="0 0 18 18" id="whatsapp" xmlns="http://www.w3.org/2000/svg"><g clip-path="url(#jclip0_3_15)"><path d="M12.275 8.92a.527.527 0 00-.746 0l-.825.826-2.45-2.45.825-.825a.527.527 0 000-.746L7.082 3.728a.527.527 0 00-.745 0L4.14 5.925a1.942 1.942 0 000 2.743l5.192 5.192c.365.365.852.566 1.371.566.52 0 1.007-.2 1.372-.566l2.197-2.197a.527.527 0 000-.745L12.275 8.92zm-.946 4.194a.878.878 0 01-.626.258.879.879 0 01-.625-.258L4.886 7.922a.886.886 0 010-1.251L6.71 4.847l1.25 1.251-.825.825a.527.527 0 000 .746l3.196 3.195c.206.206.54.206.745 0l.826-.825 1.251 1.251-1.824 1.824z"/><path d="M15.364 2.636A8.942 8.942 0 009 0a8.942 8.942 0 00-6.364 2.636A8.94 8.94 0 000 9c0 1.753.502 3.444 1.453 4.904L.72 16.751a.527.527 0 00.642.642l2.894-.744A8.962 8.962 0 009 18a8.941 8.941 0 006.364-2.636A8.941 8.941 0 0018 9a8.941 8.941 0 00-2.636-6.364zM9 16.946a7.91 7.91 0 01-4.362-1.305.528.528 0 00-.421-.07l-2.252.579.568-2.212a.527.527 0 00-.076-.431A7.899 7.899 0 011.055 9c0-2.122.826-4.117 2.327-5.618A7.894 7.894 0 019 1.055c4.38 0 7.945 3.564 7.945 7.945 0 4.38-3.564 7.945-7.945 7.945z"/></g><defs><clipPath id="jclip0_3_15"><path d="M0 0h18v18H0z"/></clipPath></defs></svg></svg>