<svg width="38" height="38" viewBox="0 0 38 38" fill="none" xmlns="http://www.w3.org/2000/svg">
<path d="M36.3547 22.7519C34.5322 22.3824 32.6741 22.2177 30.815 22.2609C31.8837 19.5563 32.104 16.2955 31.4598 12.5406C31.4459 12.4603 31.4156 12.3837 31.3708 12.3157C31.326 12.2476 31.2677 12.1895 31.1994 12.1449C31.1312 12.1004 31.0545 12.0703 30.9742 12.0567C30.8939 12.043 30.8116 12.0461 30.7325 12.0656C28.7262 12.6302 26.8153 13.4907 25.0627 14.6187C23.9226 11.5096 21.9709 8.76239 19.4102 6.66247C19.2953 6.57373 19.1519 6.53016 19.007 6.54C18.8622 6.54985 18.726 6.61243 18.6241 6.71591C15.9908 9.39432 14.2304 12.1464 13.3682 14.9097C11.5005 13.64 9.44057 12.6793 7.26746 12.0644C7.18834 12.0449 7.10606 12.0418 7.02572 12.0555C6.94538 12.0691 6.86871 12.0992 6.80048 12.1437C6.73225 12.1883 6.67392 12.2464 6.62913 12.3145C6.58434 12.3826 6.55404 12.4591 6.54011 12.5394C5.8959 16.2943 6.11855 19.5546 7.18493 22.2597C5.32584 22.2165 3.46774 22.3812 1.64524 22.7507C1.56199 22.7701 1.48394 22.8073 1.41648 22.8598C1.34903 22.9123 1.29378 22.9788 1.25455 23.0547C1.21513 23.1304 1.1925 23.2138 1.18819 23.299C1.18389 23.3843 1.19802 23.4694 1.22962 23.5487C3.81005 30.0099 8.83971 31.4984 12.9265 31.4984C14.9914 31.4854 17.0413 31.1455 19 30.4914C20.9587 31.1464 23.0087 31.4871 25.074 31.5008C29.1602 31.5008 34.1905 30.0117 36.7709 23.5511C36.8025 23.4718 36.8166 23.3866 36.8123 23.3014C36.808 23.2161 36.7854 23.1328 36.746 23.0571C36.7068 22.9809 36.6515 22.9141 36.5839 22.8614C36.5164 22.8087 36.4381 22.7713 36.3547 22.7519ZM29.4986 22.325C27.3244 22.4587 25.2022 23.0452 23.2678 24.0469C23.164 24.0722 23.0691 24.1256 22.9935 24.2013C21.7917 24.8952 20.7434 25.8263 19.9125 26.9378C19.9385 25.8413 19.8371 24.7454 19.6103 23.6722C20.3228 20.6578 22.1545 18.091 25.0728 16.0378C26.7113 14.9076 28.5045 14.0202 30.397 13.4033C30.904 16.8958 30.5977 19.8906 29.4986 22.325ZM19.0884 7.93726C20.134 8.86291 22.9128 11.5989 24.0433 15.3277C21.7879 16.9143 20.037 19.1168 19 21.6719C18.038 19.2823 16.442 17.2006 14.3841 15.6513C15.102 13.075 16.676 10.4839 19.0884 7.93726ZM7.6053 13.3998C9.66301 14.0694 11.6014 15.0614 13.3481 16.3388C15.8562 18.0956 17.6464 20.6982 18.3902 23.6687C18.163 24.7418 18.0613 25.8377 18.0874 26.9343C15.6821 23.7043 11.8589 22.5916 8.50068 22.322C7.40224 19.8906 7.09586 16.8952 7.6053 13.4015V13.3998ZM12.1089 30.3145C7.66349 30.0734 4.47327 27.873 2.61543 23.7738C5.3069 23.3154 15.0135 22.2253 18.2144 29.5023C16.2413 30.1231 14.1758 30.3985 12.1089 30.3163V30.3145ZM25.891 30.3145C23.8242 30.396 21.7588 30.1207 19.7855 29.5005C22.9858 22.2259 32.6918 23.316 35.3875 23.7738C33.5266 27.873 30.3364 30.0734 25.891 30.3163V30.3145Z" fill="#EA5546"/>
<path d="M19.5938 10.861H18.4062V12.0485H19.5938V10.861Z" fill="#EA5546"/>
<path d="M19.5938 13.236H18.4062V14.4235H19.5938V13.236Z" fill="#EA5546"/>
<path d="M19.5938 15.611H18.4062V16.7985H19.5938V15.611Z" fill="#EA5546"/>
<path d="M8.3125 15.6109C8.34193 17.193 8.78578 18.7397 9.59975 20.0967L10.5878 19.4376C9.90687 18.2745 9.53258 16.9576 9.5 15.6103L8.3125 15.6109Z" fill="#EA5546"/>
<path d="M29.6875 15.611H28.5C28.4696 16.9584 28.0952 18.2757 27.4122 19.4377L28.4002 20.0967C29.2142 18.7398 29.6581 17.1931 29.6875 15.611Z" fill="#EA5546"/>
</svg>
